<?xml version="1.0" standalone="no"?><!DOCTYPE svg PUBLIC "-//W3C//DTD SVG 1.1//EN" "http://www.w3.org/Graphics/SVG/1.1/DTD/svg11.dtd"><svg t="1597139691325" class="icon" viewBox="0 0 1024 1024" version="1.1" xmlns="http://www.w3.org/2000/svg" p-id="1724" xmlns:xlink="http://www.w3.org/1999/xlink" width="80" height="80"><defs><style type="text/css"></style></defs><path d="M950.63 392.88L769.61 211.86c-12.5-12.5-32.76-12.5-45.25 0-12.5 12.5-12.5 32.76 0 45.25L851.24 384H96c-17.67 0-32 14.33-32 32s14.33 32 32 32h832c17.67 0 32-14.33 32-32 0-0.08-0.01-0.16-0.01-0.24 0.07-8.27-3.05-16.57-9.36-22.88zM928 576H96c-17.67 0-32 14.33-32 32 0 0.08 0.01 0.16 0.01 0.24-0.06 8.27 3.05 16.57 9.37 22.88L254.4 812.14c12.5 12.5 32.76 12.5 45.25 0 12.5-12.5 12.5-32.76 0-45.25L172.76 640H928c17.67 0 32-14.33 32-32s-14.33-32-32-32z" fill="#BBBBBB" p-id="1725"></path></svg>